<svg width="300" height="300" viewBox="0 0 300 300" fill="none" xmlns="http://www.w3.org/2000/svg">
<path d="M38.4385 75.7031C38.4385 67.5483 45.0493 60.9375 53.2041 60.9375H246.329C254.484 60.9375 261.095 67.5483 261.095 75.7031V75.7031C261.095 83.858 254.484 90.4687 246.329 90.4687H53.2041C45.0493 90.4687 38.4385 83.858 38.4385 75.7031V75.7031Z" fill="#362417"/>
<path d="M38.4385 150C38.4385 141.716 45.1542 135 53.4385 135H246.095C254.379 135 261.095 141.716 261.095 150V150C261.095 158.284 254.379 165 246.095 165H53.4385C45.1542 165 38.4385 158.284 38.4385 150V150Z" fill="#362417"/>
<path d="M38.4385 224.297C38.4385 216.142 45.0493 209.531 53.2041 209.531H246.329C254.484 209.531 261.095 216.142 261.095 224.297V224.297C261.095 232.452 254.484 239.062 246.329 239.062H53.2041C45.0493 239.062 38.4385 232.452 38.4385 224.297V224.297Z" fill="#362417"/>
</svg>
